name C:\Users\antoi\Documents\MyRepositories\upper-imu-dc\Results\main_tracking\Case_70\ABD01_orientations_groundFrame.mot
datacolumns 13
datarows 25
range 2.81000000 3.05000000
endheader 
time	radius_imu_[0][0]	radius_imu_[0][1]	radius_imu_[0][2]	radius_imu_[1][0]	radius_imu_[1][1]	radius_imu_[1][2]	radius_imu_[2][0]	radius_imu_[2][1]	radius_imu_[2][2]	radius_imu_x	radius_imu_y	radius_imu_z	
          2.81000000	          0.54264396	         -0.03014129	          0.83942185	         -0.20815995	          0.96335640	          0.16915637	         -0.81376100	         -0.26652569	          0.51648532	         -0.31650438	          0.99621855	          0.05548823	
          2.82000000	          0.54397212	         -0.02985883	          0.83857187	         -0.20720879	          0.96363689	          0.16872600	         -0.81311675	         -0.26554171	          0.51800459	         -0.31488568	          0.99465648	          0.05483535	
          2.83000000	          0.54530300	         -0.02958843	          0.83771664	         -0.20623504	          0.96392153	          0.16829260	         -0.81247262	         -0.26453698	          0.51952712	         -0.31326762	          0.99308854	          0.05420738	
          2.84000000	          0.54664082	         -0.02933393	          0.83685323	         -0.20522220	          0.96421457	          0.16785146	         -0.81182982	         -0.26349532	          0.52105907	         -0.31163859	          0.99150943	          0.05361074	
          2.85000000	          0.54799171	         -0.02909772	          0.83597752	         -0.20416512	          0.96451671	          0.16740406	         -0.81118536	         -0.26241349	          0.52260642	         -0.30999800	          0.98991169	          0.05304901	
          2.86000000	          0.54936071	         -0.02888182	          0.83508601	         -0.20306319	          0.96482730	          0.16695395	         -0.81053572	         -0.26129317	          0.52417338	         -0.30834987	          0.98828912	          0.05252515	
          2.87000000	          0.55075053	         -0.02868789	          0.83417676	         -0.20191844	          0.96514507	          0.16650508	         -0.80987826	         -0.26013843	          0.52576154	         -0.30670039	          0.98663835	          0.05204169	
          2.88000000	          0.55216116	         -0.02851699	          0.83324956	         -0.20073500	          0.96546837	          0.16606107	         -0.80921166	         -0.25895482	          0.52736978	         -0.30505661	          0.98495925	          0.05160028	
          2.89000000	          0.55359040	         -0.02836932	          0.83230575	         -0.19951872	          0.96579535	          0.16562496	         -0.80853568	         -0.25774897	          0.52899482	         -0.30342569	          0.98325440	          0.05120126	
          2.90000000	          0.55503488	         -0.02824415	          0.83134743	         -0.19827698	          0.96612392	          0.16519927	         -0.80785056	         -0.25652842	          0.53063231	         -0.30181434	          0.98152782	          0.05084331	
          2.91000000	          0.55649156	         -0.02813967	          0.83037660	         -0.19701832	          0.96645190	          0.16478628	         -0.80715607	         -0.25530157	          0.53227829	         -0.30022856	          0.97978322	          0.05052318	
          2.92000000	          0.55795941	         -0.02805306	          0.82939395	         -0.19575208	          0.96677690	          0.16438842	         -0.80645051	         -0.25407766	          0.53393083	         -0.29867346	          0.97802198	          0.05023565	
          2.93000000	          0.55944116	         -0.02798054	          0.82839766	         -0.19448808	          0.96709643	          0.16400881	         -0.80572947	         -0.25286675	          0.53559166	         -0.29715328	          0.97624100	          0.04997352	
          2.94000000	          0.56094494	         -0.02791755	          0.82738225	         -0.19323621	          0.96740781	          0.16365172	         -0.80498481	         -0.25167982	          0.53726784	         -0.29567151	          0.97443064	          0.04972775	
          2.95000000	          0.56248567	         -0.02785889	          0.82633756	         -0.19200615	          0.96770823	          0.16332307	         -0.80420365	         -0.25052878	          0.53897293	         -0.29423107	          0.97257311	          0.04948774	
          2.96000000	          0.56408567	         -0.02779900	          0.82524819	         -0.19080707	          0.96799465	          0.16303073	         -0.80336792	         -0.24942649	          0.54072766	         -0.29283465	          0.97064151	          0.04924169	
          2.97000000	          0.56577448	         -0.02773215	          0.82409354	         -0.18964762	          0.96826387	          0.16278470	         -0.80245437	         -0.24838681	          0.54255965	         -0.29148522	          0.96860010	          0.04897707	
          2.98000000	          0.56758744	         -0.02765275	          0.82284860	         -0.18853601	          0.96851246	          0.16259699	         -0.80143538	         -0.24742460	          0.54450197	         -0.29018657	          0.96640582	          0.04868132	
          2.99000000	          0.56956327	         -0.02755558	          0.82148547	         -0.18748038	          0.96873677	          0.16248132	         -0.80028045	         -0.24655580	          0.54659075	         -0.28894409	          0.96401119	          0.04834249	
          3.00000000	          0.57174072	         -0.02743600	          0.81997549	         -0.18648929	          0.96893286	          0.16245262	         -0.79895825	         -0.24579742	          0.54886186	         -0.28776546	          0.96136820	          0.04795001	
          3.01000000	          0.57415525	         -0.02729017	          0.81829151	         -0.18557216	          0.96909655	          0.16252648	         -0.79743885	         -0.24516755	          0.55134758	         -0.28666135	          0.95843239	          0.04749525	
          3.02000000	          0.57683598	         -0.02711509	          0.81640984	         -0.18473974	          0.96922333	          0.16271865	         -0.79569560	         -0.24468531	          0.55407365	         -0.28564576	          0.95516640	          0.04697200	
          3.03000000	          0.57980373	         -0.02690861	          0.81431171	         -0.18400428	          0.96930846	          0.16304458	         -0.79370653	         -0.24437069	          0.55705736	         -0.28473606	          0.95154237	          0.04637658	
          3.04000000	          0.58307033	         -0.02666935	          0.81198383	         -0.18337939	          0.96934693	          0.16351918	         -0.79145499	         -0.24424428	          0.56030682	         -0.28395259	          0.94754296	          0.04570765	
          3.05000000	          0.58663899	         -0.02639649	          0.80941826	         -0.18287975	          0.96933358	          0.16415665	         -0.78892946	         -0.24432690	          0.56382149	         -0.28331792	          0.94316080	          0.04496580	
